<?xml version="1.0" encoding="UTF-8"?>
<svg width="556px" height="316px" viewBox="0 0 556 316" version="1.1" xmlns="http://www.w3.org/2000/svg" xmlns:xlink="http://www.w3.org/1999/xlink">
    <!-- Generator: Sketch 49.3 (51167) - http://www.bohemiancoding.com/sketch -->
    <title>enveriment</title>
    <desc>Created with Sketch.</desc>
    <defs></defs>
    <g id="Page-1" stroke="none" stroke-width="1" fill="none" fill-rule="evenodd">
        <g id="Desktop-HD" transform="translate(-742.000000, -349.000000)">
            <g id="enveriment" transform="translate(742.000000, 349.000000)">
                <rect id="Rectangle-5" fill="#000000" x="0" y="295" width="556" height="1"></rect>
                <g id="table-lamp" transform="translate(47.000000, 46.000000)" fill-rule="nonzero">
                    <polygon id="Shape" fill="#C6A312" points="23.5862069 50.972973 28.8505953 2.48648649 61.7705407 2.48648649 67.0344828 50.972973"></polygon>
                    <path d="M32.8965517,50.972973 L36.0530145,21.3441278 C36.7452289,14.8461113 42.1366618,9.94594595 48.5938991,9.94594595 L62.6637432,9.94594595 L67.0344828,50.972973 L32.8965517,50.972973 Z" id="Shape" fill="#F8CD10"></path>
                    <rect id="Rectangle-path" fill="#565B5F" x="44.0689655" y="52.8378378" width="2.48275862" height="27.972973"></rect>
                    <rect id="Rectangle-path" fill="#565B5F" x="31.6551724" y="83.2972973" width="29.1724138" height="7.45945946"></rect>
                    <path d="M57.7238768,80.0989538 C57.7238768,79.6830301 57.5528412,79.4094131 57.4510031,79.2832776 C57.3496874,79.1577889 57.1285161,78.9459459 56.7929729,78.9459459 C56.4247893,78.9459459 56.1950009,79.1940124 56.0908128,79.3421408 C55.9863636,79.4905926 55.862069,79.7422167 55.862069,80.0996006 L55.862069,80.8108108 L57.7241379,80.8108108 L57.7238768,80.0989538 Z" id="Shape" fill="#565B5F"></path>
                    <g id="Group" transform="translate(37.862069, 44.135135)" fill="#C6A312">
                        <rect id="Rectangle-path" x="0.142644283" y="0.254682035" width="20.3262523" height="3.89266773"></rect>
                        <rect id="Rectangle-path" x="21.8493539" y="0.296403816" width="3.39488929" height="3.80717647"></rect>
                    </g>
                    <g id="Group" transform="translate(0.000000, 9.945946)" fill="#F8CD10">
                        <polygon id="Shape" points="12.290146 12.0854548 15.620365 12.0854548 15.620365 10.5180085 17.2070803 10.5180085 17.2070803 7.22777742 15.620365 7.22777742 15.620365 5.66033108 12.290146 5.66033108 12.290146 7.22777742 10.7038686 7.22777742 10.7038686 10.5180085 12.290146 10.5180085"></polygon>
                        <polygon id="Shape" points="75.0950365 42.4339853 76.6815328 42.4339853 76.6815328 44.0014316 80.0117518 44.0014316 80.0117518 42.4339853 81.5982482 42.4339853 81.5982482 39.1437542 80.0117518 39.1437542 80.0117518 37.5763079 76.6815328 37.5763079 76.6815328 39.1437542 75.0950365 39.1437542"></polygon>
                        <polygon id="Shape" points="84.9306569 18.1886517 88.2608759 18.1886517 88.2608759 16.6212054 89.8471533 16.6212054 89.8471533 13.3309743 88.2608759 13.3309743 88.2608759 11.763528 84.9306569 11.763528 84.9306569 13.3309743 83.3441606 13.3309743 83.3441606 16.6212054 84.9306569 16.6212054"></polygon>
                        <polygon id="Shape" points="2.6150365 37.8906626 4.20175182 37.8906626 4.20175182 39.4581089 7.5319708 39.4581089 7.5319708 37.8906626 9.11824818 37.8906626 9.11824818 34.6004315 7.5319708 34.6004315 7.5319708 33.0329852 4.20175182 33.0329852 4.20175182 34.6004315 2.6150365 34.6004315"></polygon>
                        <rect id="Rectangle-path" x="73.2427007" y="8.87613818" width="3.33021898" height="3.21797059"></rect>
                        <rect id="Rectangle-path" x="84.929562" y="0.101900238" width="3.33021898" height="3.21797059"></rect>
                        <rect id="Rectangle-path" x="14.1959124" y="23.195177" width="3.33021898" height="3.21797059"></rect>
                        <rect id="Rectangle-path" x="0.0972262774" y="0.101900238" width="3.33021898" height="3.21797059"></rect>
                    </g>
                    <path d="M59.9477304,80.6508141 L59.9477304,80.1677409 C59.9477304,79.0662725 59.5214147,78.0309274 58.7473668,77.2515078 C57.9733188,76.4725276 56.944311,76.043715 55.8495986,76.043715 C54.6656065,76.043715 53.539679,76.559081 52.7612653,77.457127 C52.1103316,78.2079883 51.7519034,79.1706198 51.7519034,80.1679606 L51.7519034,80.6510337 L49.6504484,80.6510337 L49.6504484,53.4036413 L69.5172414,53.4036413 L63.7946131,0 L26.82564,0 L21.1034483,53.4036413 L41.3740733,53.4036413 L41.3740733,80.6510337 L28.4806967,80.6510337 L28.4806967,92 L62.5436068,92 L62.5436068,80.6508141 L59.9477304,80.6508141 Z M55.0714032,80.1675212 C55.0714032,79.9247764 55.1755264,79.7538664 55.2626232,79.653034 C55.3497199,79.5526409 55.541813,79.3839277 55.8495986,79.3839277 C56.1303165,79.3839277 56.3149878,79.5278172 56.3996834,79.6130525 C56.4848156,79.6987271 56.627794,79.8850145 56.627794,80.1670818 L56.627794,80.650155 L55.0709666,80.650155 L55.0709666,80.1673015 L55.0714032,80.1673015 L55.0714032,80.1675212 Z M24.8005857,50.0627696 L29.8065757,3.34087173 L60.8136774,3.34087173 L65.8198857,50.0627696 L49.6500119,50.0627696 L41.373855,50.0627696 L24.8005857,50.0627696 Z M46.330512,53.4036413 L46.330512,80.6510337 L44.6935732,80.6510337 L44.6935732,53.4036413 L46.330512,53.4036413 Z M31.8004148,83.9916858 L41.3740733,83.9916858 L49.6502302,83.9916858 L51.7516851,83.9916858 L59.2238886,83.9916858 L59.2238886,90.5978598 L31.8004148,90.5978598 L31.8004148,83.9916858 Z" id="Shape" fill="#000000"></path>
                    <ellipse id="Oval" fill="#FFDF5A" cx="51.5172414" cy="26.7297297" rx="10.5517241" ry="10.5675676"></ellipse>
                    <g id="Group" transform="translate(31.034483, 53.459459)" fill="#44494C">
                        <rect id="Rectangle-path" x="13.6551724" y="0" width="1" height="27.3513514"></rect>
                        <polygon id="Shape" points="27.9310345 30.4594595 27.9310345 33.1085503 4.32345414 33.1085503 4.32345414 37.2972973 0 37.2972973 0 30.4594595"></polygon>
                    </g>
                    <rect id="Rectangle-path" fill="#72787C" x="46.5517241" y="88.2702703" width="11.1724138" height="1.86486486"></rect>
                </g>
                <g id="desk" transform="translate(16.000000, 137.000000)" fill-rule="nonzero">
                    <polygon id="Shape" fill="#A25425" points="44.1184537 49.7222222 41.7560606 69.6111111 390.274314 69.6111111 390.274314 49.7222222"></polygon>
                    <rect id="Rectangle-path" fill="#CB202C" x="390.274314" y="89.5" width="89.7755611" height="9.94444444"></rect>
                    <rect id="Rectangle-path" fill="#CB202C" x="390.274314" y="19.8888889" width="89.7755611" height="9.94444444"></rect>
                    <polygon id="Shape" fill="#A25425" points="27.4314214 29.8333333 46.207606 29.8333333 46.7948878 19.8888889 27.4314214 19.8888889"></polygon>
                    <path d="M500,14.9166667 C500,17.6513889 496.484375,19.8888889 492.1875,19.8888889 L7.8125,19.8888889 C3.515625,19.8888889 0,17.6513889 0,14.9166667 L0,4.97222222 C0,2.2375 3.515625,0 7.8125,0 L492.1875,0 C496.484375,0 500,2.2375 500,4.97222222 L500,14.9166667 Z" id="Shape" fill="#AF6328"></path>
                    <rect id="Rectangle-path" fill="#F6B74E" x="415.21197" y="34.8055556" width="39.9002494" height="9.94444444"></rect>
                    <rect id="Rectangle-path" fill="#CB202C" x="415.21197" y="44.75" width="39.9002494" height="4.97222222"></rect>
                    <rect id="Rectangle-path" fill="#F6B74E" x="415.21197" y="114.361111" width="39.9002494" height="9.94444444"></rect>
                    <rect id="Rectangle-path" fill="#CB202C" x="415.21197" y="124.305556" width="39.9002494" height="4.97222222"></rect>
                    <path d="M27.4314214,29.8333333 L27.4314214,174.027778 C27.4314214,176.7625 29.6758105,179 32.4189526,179 C35.1620948,179 37.5380299,176.766229 37.6988778,174.036479 L46.2082294,29.8333333 L27.4314214,29.8333333 Z" id="Shape" fill="#AF6328"></path>
                    <path d="M390.274314,99.4444444 L390.274314,174.027778 C390.274314,176.7625 392.518703,179 395.261845,179 L475.062344,179 C477.805486,179 480.049875,176.7625 480.049875,174.027778 L480.049875,99.4444444 L390.274314,99.4444444 Z M455.112219,129.277778 L415.21197,129.277778 L415.21197,114.361111 L455.112219,114.361111 L455.112219,129.277778 Z" id="Shape" fill="#ED2C39"></path>
                    <path d="M390.274314,29.8333333 L390.274314,89.5 L480.049875,89.5 L480.049875,29.8333333 L390.274314,29.8333333 Z M455.112219,49.7222222 L415.21197,49.7222222 L415.21197,34.8055556 L455.112219,34.8055556 L455.112219,49.7222222 Z" id="Shape" fill="#ED2C39"></path>
                </g>
                <g id="coding" transform="translate(169.000000, 0.000000)" fill-rule="nonzero">
                    <path d="M104.021186,137 L42.9788136,137 C42.9788136,131.497567 47.5340425,127.036364 53.1524463,127.036364 L93.8472655,127.036364 C99.4659575,127.036081 104.021186,131.497567 104.021186,137" id="Shape" fill="#E8EDEE"></path>
                    <polygon id="Shape" fill="#B0B6BB" points="91.5635593 127.036364 56.059322 127.036364 61.1313149 106.486364 86.4915665 106.486364"></polygon>
                    <path d="M147,85.9363636 L0,85.9363636 L0,8.84651669 C0,3.9607038 3.97157623,0 8.87080103,0 L138.129199,0 C143.028424,0 147,3.9607038 147,8.84651669 L147,85.9363636 Z" id="Shape" fill="#38454F"></path>
                    <path d="M138.129182,107.109091 L8.87081836,107.109091 C3.97158398,107.109091 0,103.083827 0,98.118375 L0,86.5590909 L147,86.5590909 L147,98.118375 C147,103.083827 143.028416,107.109091 138.129182,107.109091" id="Shape" fill="#E8EDEE"></path>
                    <g id="Group" transform="translate(19.932203, 9.963636)" fill="#EA6148">
                        <path d="M104.41458,66.4826898 L66.2794923,66.4826898 C64.8734817,66.4826898 63.737038,65.3418723 63.737038,63.9362583 C63.737038,62.5306442 64.8734817,61.3898267 66.2794923,61.3898267 L104.41458,61.3898267 C105.82059,61.3898267 106.957034,62.5306442 106.957034,63.9362583 C106.956746,65.3418723 105.820302,66.4826898 104.41458,66.4826898" id="Shape"></path>
                        <path d="M28.1444051,51.2046774 L2.72101367,51.2046774 C1.31500301,51.2046774 0.178559322,50.0638599 0.178559322,48.6582458 C0.178559322,47.2526317 1.31500301,46.1118142 2.72101367,46.1118142 L28.1444051,46.1118142 C29.5504158,46.1118142 30.6868595,47.2526317 30.6868595,48.6582458 C30.6868595,50.0638599 29.5504158,51.2046774 28.1444051,51.2046774" id="Shape"></path>
                        <path d="M91.7028838,51.2046774 L53.5677966,51.2046774 C52.1617859,51.2046774 51.0253423,50.0638599 51.0253423,48.6582458 C51.0253423,47.2526317 52.1617859,46.1118142 53.5677966,46.1118142 L91.7028838,46.1118142 C93.1088945,46.1118142 94.2453382,47.2526317 94.2453382,48.6582458 C94.2450502,50.0638599 93.1086065,51.2046774 91.7028838,51.2046774" id="Shape"></path>
                        <path d="M40.8561009,51.2046774 C40.5254781,51.2046774 40.1951434,51.1282383 39.8901525,51.0010321 C39.5595298,50.8738259 39.3055148,50.6955641 39.0512117,50.4662468 C38.5909895,49.9825171 38.3139345,49.3459092 38.3139345,48.6582458 C38.3139345,47.9705823 38.5909895,47.3342629 39.0512117,46.8502448 C39.3055148,46.6212159 39.5598178,46.4429542 39.8901525,46.3154595 C40.8028211,45.9335525 41.9493447,46.1371978 42.661278,46.8502448 C43.1189083,47.3339745 43.3985552,47.9959659 43.3985552,48.6582458 C43.3985552,49.3202372 43.1189083,49.9822287 42.661278,50.4662468 C42.1780159,50.924593 41.5170584,51.2046774 40.8561009,51.2046774" id="Shape"></path>
                        <path d="M53.5677966,66.4826898 L15.4327094,66.4826898 C14.0266987,66.4826898 12.8902551,65.3418723 12.8902551,63.9362583 C12.8902551,62.5306442 14.0266987,61.3898267 15.4327094,61.3898267 L53.5677966,61.3898267 C54.9738073,61.3898267 56.110251,62.5306442 56.110251,63.9362583 C56.110251,65.3418723 54.9738073,66.4826898 53.5677966,66.4826898" id="Shape"></path>
                        <path d="M2.72101367,66.4826898 C2.39039092,66.4826898 2.06005618,66.4062507 1.75506534,66.2790445 C1.45007449,66.1518383 1.17042756,65.9735766 0.916124522,65.7442593 C0.455902269,65.2605296 0.178847321,64.6239217 0.178847321,63.9362583 C0.178847321,63.6051183 0.255167031,63.2742668 0.382174549,62.9687989 C0.509182067,62.6376589 0.687165391,62.3832465 0.916124522,62.1285457 C1.5263942,61.5429933 2.39067892,61.2882925 3.20168384,61.4411707 C3.38225916,61.4665543 3.53230659,61.5176098 3.68725,61.5940489 C3.83729743,61.6451044 3.99224084,61.7212551 4.11953636,61.8230777 C4.26958379,61.9249004 4.3991833,62.026723 4.52619081,62.1285457 C4.75486195,62.3832465 4.93284527,62.6379474 5.06014079,62.9687989 C5.18714831,63.2742668 5.26346802,63.6054068 5.26346802,63.9362583 C5.26346802,64.6236333 4.98382108,65.2602411 4.52619081,65.7442593 C4.3991833,65.8460819 4.26929579,65.9479046 4.11953636,66.0497272 C3.99252884,66.1515499 3.83729743,66.227989 3.68725,66.2787561 C3.53230659,66.3551952 3.38225916,66.4059623 3.20168384,66.4316343 C3.05163641,66.4570178 2.87365309,66.4826898 2.72101367,66.4826898" id="Shape"></path>
                        <path d="M104.41458,51.2046774 C104.259636,51.2046774 104.083957,51.1792938 103.931605,51.1536218 C103.753622,51.1282383 103.600983,51.0771827 103.448631,51.0007436 C103.295992,50.9496881 103.14364,50.8735374 102.988409,50.7717148 C102.863705,50.6698921 102.736698,50.5680695 102.60969,50.4662468 C102.149468,49.9825171 101.872413,49.3205257 101.872413,48.6582458 C101.872413,47.9962543 102.149468,47.3342629 102.60969,46.8502448 L102.988409,46.5447768 C103.14364,46.4429542 103.295992,46.3665151 103.448631,46.315748 C103.601271,46.2393089 103.753622,46.1885418 103.931605,46.1628698 C104.745202,45.984608 105.632527,46.2646924 106.219757,46.8502448 C106.32142,46.977451 106.423084,47.1049456 106.524748,47.2575354 C106.626411,47.3847416 106.700139,47.5376198 106.753419,47.690498 C106.829738,47.8433762 106.880426,47.9959659 106.903466,48.1742276 C106.931402,48.3271058 106.956746,48.5053676 106.956746,48.6579573 C106.956746,48.8105471 106.931402,48.9890973 106.903466,49.167359 C106.880714,49.3202372 106.829738,49.472827 106.753419,49.6257052 C106.700139,49.7785834 106.626411,49.9311731 106.524748,50.0840513 C106.423084,50.2112575 106.32142,50.3387522 106.219757,50.4659584 C106.092749,50.567781 105.962862,50.6696037 105.838446,50.7714263 C105.685807,50.873249 105.530863,50.9496881 105.380816,51.0004552 C105.225872,51.0768943 105.075825,51.1276614 104.89525,51.1533334 C104.744914,51.1792938 104.566931,51.2046774 104.41458,51.2046774" id="Shape"></path>
                        <path d="M104.41458,20.6489409 L66.2794923,20.6489409 C64.8734817,20.6489409 63.737038,19.5081234 63.737038,18.1025093 C63.737038,16.6968952 64.8734817,15.5560777 66.2794923,15.5560777 L104.41458,15.5560777 C105.82059,15.5560777 106.957034,16.6968952 106.957034,18.1025093 C106.957034,19.5081234 105.820302,20.6489409 104.41458,20.6489409" id="Shape"></path>
                        <path d="M104.41458,35.9269533 L78.9911881,35.9269533 C77.5851774,35.9269533 76.4487337,34.7861358 76.4487337,33.3805218 C76.4487337,31.9749077 77.5851774,30.8340902 78.9911881,30.8340902 L104.41458,30.8340902 C105.82059,30.8340902 106.957034,31.9749077 106.957034,33.3805218 C106.957034,34.7861358 105.820302,35.9269533 104.41458,35.9269533" id="Shape"></path>
                        <path d="M58.6524173,35.9269533 L53.5677966,35.9269533 C52.1617859,35.9269533 51.0253423,34.7861358 51.0253423,33.3805218 C51.0253423,31.9749077 52.1617859,30.8340902 53.5677966,30.8340902 L58.6524173,30.8340902 C60.058428,30.8340902 61.1948717,31.9749077 61.1948717,33.3805218 C61.1948717,34.7861358 60.058428,35.9269533 58.6524173,35.9269533" id="Shape"></path>
                        <path d="M91.7028838,5.37121682 L53.5677966,5.37121682 C52.1617859,5.37121682 51.0253423,4.23039933 51.0253423,2.82478526 C51.0253423,1.41917119 52.1617859,0.278353699 53.5677966,0.278353699 L91.7028838,0.278353699 C93.1088945,0.278353699 94.2453382,1.41917119 94.2453382,2.82478526 C94.2453382,4.23039933 93.1086065,5.37121682 91.7028838,5.37121682" id="Shape"></path>
                        <path d="M104.41458,5.37121682 C104.259636,5.37121682 104.083957,5.34583327 103.931605,5.32016128 C103.753622,5.29477773 103.600983,5.24372218 103.448631,5.16728308 C103.295992,5.11622753 103.14364,5.04007688 102.988409,4.93825423 C102.863705,4.83643158 102.736698,4.73460893 102.60969,4.63278628 C102.149468,4.14905659 101.872413,3.48706515 101.872413,2.82478526 C101.872413,2.16279382 102.149468,1.50080238 102.60969,1.01678424 L102.988409,0.711316293 C103.14364,0.609493644 103.295992,0.533054545 103.448631,0.482287446 C103.601271,0.405848347 103.753622,0.355081248 103.931605,0.329409248 C104.745202,0.151147501 105.632527,0.431231897 106.219757,1.01678424 C106.32142,1.14399044 106.423084,1.27148508 106.524748,1.42407483 C106.626411,1.55128103 106.700139,1.70415923 106.753419,1.85703743 C106.829738,2.00991562 106.880426,2.16250537 106.903466,2.34076712 C106.931402,2.49364532 106.956746,2.67190706 106.956746,2.82449681 C106.956746,2.97708656 106.931402,3.15563676 106.903466,3.3338985 C106.880714,3.4867767 106.829738,3.63936645 106.753419,3.79224465 C106.700139,3.94512285 106.626411,4.09771259 106.524748,4.25059079 C106.423084,4.37779699 106.32142,4.50529164 106.219757,4.63249784 C106.092749,4.73432048 105.962862,4.83614313 105.838446,4.93796578 C105.685807,5.03978843 105.530863,5.11622753 105.380816,5.16699463 C105.225872,5.24343373 105.075825,5.29420083 104.89525,5.31987283 C104.744914,5.34554482 104.566931,5.37121682 104.41458,5.37121682" id="Shape"></path>
                        <path d="M56.110251,20.6489409 C55.4492935,20.6489409 54.785744,20.3688565 54.3050738,19.9105103 C54.0764027,19.6558095 53.8984194,19.3757251 53.7711238,19.0702571 C53.6438283,18.7647892 53.5677966,18.4336492 53.5677966,18.1027977 C53.5677966,17.7716578 53.6441163,17.4408063 53.7711238,17.1353384 C53.8981314,16.8298704 54.0761147,16.549786 54.3050738,16.2950852 C54.8897116,15.7095328 55.7796282,15.454832 56.5906331,15.6077102 C56.7712084,15.6330937 56.9212559,15.6841493 57.0761993,15.7605884 C57.2262467,15.8116439 57.3811901,15.8877946 57.5084856,15.9896172 C57.6585331,16.0914399 57.7881326,16.1932625 57.8897962,16.2950852 C58.1440992,16.549786 58.3220826,16.8298704 58.4490901,17.1353384 C58.5760976,17.4408063 58.6524173,17.7719462 58.6524173,18.1027977 C58.6524173,18.4339377 58.5760976,18.7647892 58.4490901,19.0702571 C58.3220826,19.3757251 58.1440992,19.6558095 57.8897962,19.9105103 C57.7881326,20.012333 57.6585331,20.1141556 57.5084856,20.2159783 C57.3814781,20.3178009 57.2262467,20.39424 57.0761993,20.4450071 C56.9212559,20.5214462 56.7712084,20.5722133 56.5906331,20.5978853 C56.4405857,20.6235573 56.2626024,20.6489409 56.110251,20.6489409" id="Shape"></path>
                        <path d="M68.8219467,35.9269533 C68.1330533,35.9269533 67.4974397,35.6468689 67.0167695,35.1885228 C66.5565473,34.7047931 66.2794923,34.0428017 66.2794923,33.3805218 C66.2794923,32.7185303 66.5565473,32.0565389 67.0167695,31.5725207 C67.957374,30.6304449 69.6862314,30.6304449 70.6268358,31.5725207 C71.0844661,32.0562504 71.364113,32.7182419 71.364113,33.3805218 C71.364113,33.5587835 71.3387691,33.7116617 71.3108332,33.8899235 C71.2880813,34.0428017 71.2371055,34.1953914 71.1607858,34.3482696 C71.107506,34.5011478 71.0337783,34.6537375 70.9321147,34.8066157 C70.8304511,34.9338219 70.7287875,35.0613166 70.6271238,35.1885228 C70.1438617,35.6468689 69.5082481,35.9269533 68.8219467,35.9269533" id="Shape"></path>
                    </g>
                    <polygon id="Shape" fill="#ECBA16" points="23.0466102 45.4590909 58.5508475 45.4590909 58.5508475 9.96363636 23.0466102 9.96363636"></polygon>
                </g>
                <g id="vase" transform="translate(437.000000, 70.000000)" fill-rule="nonzero">
                    <g id="Group">
                        <g transform="translate(0.000000, 0.771203)" id="Shape">
                            <path d="M7.43082081,0.101541749 C4.8373167,1.94368902 5.98951806,4.53313215 6.43862681,5.33749704 C5.90296076,4.89225575 5.42788482,4.5375023 5.04703268,4.26938067 C3.69302916,0.419020381 0.23642509,1.18559632 0.23642509,1.18559632 C0.33188543,3.87041157 4.19654536,4.25935503 4.94019624,4.3089691 C5.38806846,4.67117751 5.81912383,5.04469691 6.22866352,5.43004142 C3.59163346,4.35061407 1.03547265,6.84031492 1.03547265,6.84031492 C4.86180006,8.3726956 6.33055383,6.46165417 6.67851419,5.86731361 C7.64548292,6.82900394 8.50586251,7.85547535 9.27003984,8.92359172 C5.00276481,7.51074753 3.14994391,10.807384 3.14994391,10.807384 C6.31868312,12.5207403 8.8476402,10.1405503 9.56606582,9.34723932 C10.2545673,10.3534024 10.8629415,11.392213 11.3991022,12.4467048 C8.94854129,11.327689 6.3330269,13.8842275 6.3330269,13.8842275 C9.36080136,15.3813899 11.1508064,14.1166167 11.8581032,13.3898863 C12.3762105,14.5022183 12.8164162,15.624833 13.1930641,16.7374221 C10.0290237,14.8369204 7.59280662,17.2392183 7.59280662,17.2392183 C9.7532769,19.5607968 12.4949176,17.8772604 13.3602434,17.2423031 C13.7692885,18.5117035 14.0947439,19.7628521 14.3556524,20.9631012 C10.9801648,18.7029619 9.07466765,20.8839244 9.07466765,20.8839244 C11.5638084,23.1224701 13.7227948,21.9458711 14.4516073,21.4181111 C14.69743,22.6163037 14.8774692,23.7589698 15.0082944,24.8160322 C12.9210269,22.4954819 9.83093117,23.926835 9.83093117,23.926835 C11.6011517,26.3347883 14.136786,25.8689816 15.0968302,25.5792663 C15.2444722,26.9504655 15.3097611,28.1450592 15.3367176,29.0843846 C12.8737913,25.9903176 9.60316181,27.2774556 9.60316181,27.2774556 C11.8751674,30.5126529 14.8564482,29.4113748 15.3396852,29.2041782 C15.3723297,30.5267916 15.3260834,31.3116193 15.3260834,31.3116193 C15.4480055,30.5383596 15.5404982,29.7841229 15.6107332,29.0455674 C19.6267448,29.0357988 19.9296954,25.6219395 19.9296954,25.6219395 C17.5085639,25.6026594 16.0927338,27.8589428 15.6423885,28.7190914 C15.7435369,27.5291249 15.7821167,26.3862018 15.761343,25.2890368 C19.7365489,25.4252827 20.0058658,20.8713281 20.0058658,20.8713281 C17.2854934,21.2564155 16.1659365,23.1414931 15.7262254,24.3168067 C15.6693449,23.1854517 15.5508851,22.1070526 15.38148,21.0767252 C18.2618598,20.6613037 19.0473055,16.3528488 19.0473055,16.3528488 C16.4364899,16.854902 15.5187352,18.8124727 15.1950109,20.0546239 C14.9736715,18.9672275 14.6939678,17.9392137 14.3707381,16.9682689 C17.7551286,16.1153182 17.0893793,11.8762715 17.0893793,11.8762715 C14.5295089,12.6803794 13.8652434,14.1878245 13.7791807,15.3682794 C13.4114358,14.4659717 13.0075842,13.6202189 12.5770234,12.8284504 C15.9436079,11.152883 13.9775206,8.10251742 13.9775206,8.10251742 C12.2218912,9.29685404 11.7673417,10.503787 11.7559656,11.4212617 C11.1958162,10.5310362 10.6119253,9.72384352 10.0258088,8.9937712 C13.9315216,8.55110059 12.0401208,4.08532018 12.0401208,4.08532018 C9.82697426,5.34520907 9.47258393,7.27398817 9.45749823,8.31048521 C8.46851922,7.16113544 7.49709897,6.23594872 6.65774044,5.52207166 C9.67760109,2.79458317 7.43082081,0.101541749 7.43082081,0.101541749 Z" fill="#A5D6B2"></path>
                            <g transform="translate(0.989226, 0.771203)" fill="#82C091">
                                <g transform="translate(14.838395, 24.935569)">
                                    <path d="M0.202791396,3.01694675 L0.139233605,2.89766732 C0.159760051,2.88815582 2.29129546,1.90461473 3.55404286,0.208738988 L3.67250271,0.284831032 C2.3867558,2.00949836 0.224307068,3.00743524 0.202791396,3.01694675 Z"></path>
                                    <polygon points="2.2173508 2.57247666 0.975377151 2.54368508 0.997387437 1.71464168 1.14230909 1.71746943 1.12277187 2.41386588 2.22155501 2.43957265"></polygon>
                                    <polygon points="2.18346979 1.71695529 2.01208633 0.8552643 2.15478223 0.831357002 2.30094042 1.56965549 3.10147182 1.48071006 3.11828867 1.6125858"></polygon>
                                </g>
                                <g transform="translate(15.085701, 20.565417)">
                                    <path d="M0.195124892,3.2737574 L0.116234093,3.16167587 C0.137255152,3.15010782 2.13524501,1.95448586 3.18654528,0.139844839 L3.31390817,0.202312295 C2.24455452,2.04857265 0.214167498,3.26141815 0.195124892,3.2737574 Z"></path>
                                    <polygon points="2.1421696 2.62517554 0.905389389 2.72440368 0.82724051 1.89793097 0.97043102 1.88661999 1.03596726 2.57993162 2.13128811 2.4932998"></polygon>
                                    <polygon points="2.0071402 1.77839448 1.73287721 0.939068376 1.87062697 0.901022354 2.1048263 1.62004076 2.890272 1.45037607 2.92341108 1.5799382"></polygon>
                                </g>
                                <g transform="translate(14.591088, 15.938199)">
                                    <path d="M0.278219902,3.8215687 L0.18078111,3.72439711 C0.198092571,3.70923011 1.93962551,2.21103945 2.6310947,0.255525312 L2.76859716,0.29639908 C2.06426802,2.28610322 0.296520589,3.80665878 0.278219902,3.8215687 Z"></path>
                                    <polygon points="2.07341837 2.86990401 0.873734147 3.16656016 0.641265962 2.36528008 0.780004953 2.330833 0.975871765 3.00435043 2.03656969 2.74214135"></polygon>
                                    <polygon points="1.77937084 2.05808416 1.35153046 1.27582709 1.47963527 1.21567324 1.84812207 1.88687705 2.58682683 1.59356279 2.64420195 1.71566995"></polygon>
                                </g>
                                <g transform="translate(13.107249, 11.825115)">
                                    <path d="M0.164458876,3.76192899 L0.0675146963,3.66424326 C0.0840842372,3.64933333 1.82536987,2.1508856 2.5183229,0.195628534 L2.65483614,0.237273504 C1.95100161,2.22569231 0.182759563,3.74624786 0.164458876,3.76192899 Z"></path>
                                    <polygon points="1.96064657 2.8102643 0.75997312 3.10640631 0.527752242 2.3046121 0.66673854 2.27119329 0.862852657 2.94368245 1.92379789 2.68173044"></polygon>
                                    <polygon points="1.66560982 1.99844444 1.23776943 1.21618738 1.36612155 1.15603353 1.73361913 1.82723734 2.47356041 1.53315187 2.53143015 1.65577318"></polygon>
                                </g>
                                <g transform="translate(11.128796, 7.969099)">
                                    <path d="M0.230984346,3.55524655 L0.124889823,3.48583826 C0.137007845,3.469643 1.37131499,1.84651742 1.58424595,0.00102827087 L1.71333999,0.0131104536 C1.4959575,1.89099014 0.243596981,3.53828008 0.230984346,3.55524655 Z"></path>
                                    <polygon points="1.6235677 2.40563971 0.622717968 2.87376003 0.254973084 2.20718343 0.37095987 2.15294214 0.680340401 2.71334977 1.56421412 2.2981854"></polygon>
                                    <polygon points="1.19869499 1.73957725 0.661545101 1.12287179 0.762693493 1.04729389 1.22268373 1.57608218 1.81671414 1.1897094 1.89214264 1.28739513"></polygon>
                                </g>
                                <g transform="translate(8.903037, 4.113083)">
                                    <path d="M0.317047036,3.65781657 L0.210952513,3.58866535 C0.223812455,3.57221302 1.45737768,1.94960158 1.67080325,0.102827087 L1.79989729,0.115937541 C1.58325672,1.99330309 0.329412365,3.6408501 0.317047036,3.65781657 Z"></path>
                                    <polygon points="1.71037231 2.50795266 0.709769884 2.97658711 0.341530387 2.30872518 0.457517173 2.25474096 0.766897704 2.81540565 1.65101873 2.40101249"></polygon>
                                    <polygon points="1.28475768 1.84163314 0.747855098 1.22492768 0.849250796 1.15012097 1.30973565 1.67916634 1.90376605 1.29176529 1.97869995 1.38996515"></polygon>
                                </g>
                                <g transform="translate(5.440745, 0.000000)">
                                    <path d="M0.389507863,3.72465417 L0.27698337,3.68095266 C0.284402567,3.66321499 1.05921408,1.93674819 0.844304664,0.197942143 L0.966968728,0.18483169 C1.18360929,1.9542288 0.398905513,3.7061453 0.389507863,3.72465417 Z"></path>
                                    <polygon points="1.41558286 2.40281197 0.59947115 3.02311637 0.1127718 2.47916108 0.206995607 2.40718212 0.616535304 2.86476266 1.33743398 2.31592308"></polygon>
                                    <polygon points="0.87497068 1.87068179 0.244586208 1.40410388 0.321251247 1.31644379 0.862358044 1.71592702 1.32234828 1.24729257 1.41385172 1.32338462"></polygon>
                                </g>
                                <g transform="translate(0.989226, 4.884287)">
                                    <path d="M3.91659431,0.251412229 L3.85476766,0.153726496 C3.83696159,0.16220973 2.08133218,1.09536555 0.182264949,1.12724195 L0.184490709,1.24086588 C2.1159551,1.20744707 3.89903554,0.260152531 3.91659431,0.251412229 Z"></path>
                                    <polygon points="2.62985817 1.36040237 3.18976027 0.533672584 2.5408278 0.159896121 2.47578617 0.256296515 3.02084987 0.569404997 2.52475287 1.30076266"></polygon>
                                    <polygon points="1.98636645 0.936754767 1.40148639 0.421848126 1.31690754 0.503081525 1.81770336 0.945495069 1.37452997 1.42672584 1.46801186 1.50101841"></polygon>
                                </g>
                                <g transform="translate(0.000000, 0.514135)">
                                    <path d="M3.19643755,2.45319724 L3.24317849,2.35011308 C3.22611434,2.34240105 1.36265926,1.60615911 0.197103344,0.224677186 L0.0999118583,0.294342538 C1.28599422,1.69896055 3.17788955,2.44728468 3.19643755,2.45319724 Z"></path>
                                    <polygon points="1.4620765 2.16965155 2.51461331 2.08764694 2.45080821 1.3840526 2.32839145 1.39382117 2.38230428 1.98379158 1.45168962 2.05705588"></polygon>
                                    <polygon points="1.44278659 1.44086456 1.54071999 0.701023669 1.42003438 0.68739908 1.33520823 1.32235634 0.651158225 1.28353912 0.642997108 1.39690598"></polygon>
                                </g>
                                <g transform="translate(3.462292, 8.226167)">
                                    <path d="M3.97916287,0.349097962 L3.91708892,0.251669297 C3.89903554,0.260923734 2.14315882,1.19407955 0.244586208,1.22569888 L0.24656466,1.33829454 C2.17901828,1.30641815 3.9613568,0.359637738 3.97916287,0.349097962 Z"></path>
                                    <polygon points="2.69143751 1.45834517 3.25282345 0.632386588 2.60339637 0.258353057 2.53761282 0.353982249 3.08366575 0.667861933 2.58756875 1.39921959"></polygon>
                                    <polygon points="2.04918232 1.03546877 1.46356034 0.519533859 1.37972341 0.600767258 1.87977731 1.04369494 1.43635662 1.52518277 1.53107504 1.59896121"></polygon>
                                </g>
                                <g transform="translate(6.429971, 12.082183)">
                                    <path d="M3.93563691,0.204111769 L3.88098216,0.103084155 C3.86268147,0.110539119 2.04201043,0.933155819 0.145416269,0.846781065 L0.139975524,0.960147929 C2.06946146,1.04755095 3.91659431,0.212337936 3.93563691,0.204111769 Z"></path>
                                    <polygon points="2.5707519 1.23135437 3.19025488 0.441128205 2.56902075 0.0280203813 2.49705454 0.119279421 3.01837681 0.466577909 2.47009812 1.16451677"></polygon>
                                    <polygon points="1.95965734 0.768889546 1.41360441 0.218507561 1.32383212 0.294342538 1.79124156 0.76734714 1.31295063 1.21952926 1.40049716 1.29973439"></polygon>
                                </g>
                                <g transform="translate(7.419197, 15.681131)">
                                    <path d="M4.002657,0.560407627 L3.96457178,0.452439185 C3.94528187,0.457580539 2.01282825,1.0192735 0.150609707,0.673260355 L0.126373662,0.784313609 C2.02074206,1.13649638 3.98287247,0.566577252 4.002657,0.560407627 Z"></path>
                                    <polygon points="2.48567844 1.38739448 3.22660895 0.692283366 2.68030871 0.197685076 2.59498794 0.278404339 3.05374165 0.693568705 2.39837921 1.30796055"></polygon>
                                    <polygon points="1.95668966 0.845752794 1.50659169 0.22647666 1.40445407 0.289458251 1.79074695 0.820560158 1.24518863 1.20281986 1.31863868 1.29382183"></polygon>
                                </g>
                                <g transform="translate(8.655730, 19.537147)">
                                    <path d="M4.09762272,0.893824458 L4.08130049,0.782257068 C4.06102135,0.783028271 2.05041885,1.02055884 0.285144487,0.375061801 L0.239887383,0.480716634 C2.03582777,1.13598225 4.07660166,0.895880999 4.09762272,0.893824458 Z"></path>
                                    <polygon points="2.44586208 1.45963051 3.30822012 0.895880999 2.86529404 0.32004931 2.76587679 0.38534451 3.13757858 0.869660092 2.37439047 1.3673432"></polygon>
                                    <polygon points="2.02890318 0.839840237 1.70567348 0.156811308 1.59314899 0.202055227 1.86988505 0.787912558 1.25879049 1.07531427 1.31468178 1.17608481"></polygon>
                                </g>
                                <g transform="translate(9.644957, 23.136095)">
                                    <path d="M3.93810998,1.09382314 L3.94033574,0.981227482 C3.92104583,0.980970414 1.89337918,0.942410256 0.250768872,0.0652952005 L0.18943684,0.163238001 C1.86172393,1.05526298 3.91807815,1.09459435 3.93810998,1.09382314 Z"></path>
                                    <polygon points="2.21487773 1.43058185 3.15835233 0.990738988 2.81212312 0.360923077 2.70281361 0.411822485 2.99389346 0.94086785 2.15972836 1.32929717"></polygon>
                                    <polygon points="1.90079837 0.76169165 1.69108239 0.0421591059 1.57188062 0.0717218935 1.75266173 0.688684418 1.10298735 0.889968442 1.14181448 0.996651545"></polygon>
                                </g>
                                <g transform="translate(9.397650, 26.735043)">
                                    <path d="M3.92994886,1.11541683 L3.93192731,1.0025641 C3.91189548,1.0017929 1.88472345,0.963232742 0.241371222,0.0845752794 L0.180533803,0.183289283 C1.85183167,1.07608547 3.9086805,1.11438856 3.92994886,1.11541683 Z"></path>
                                    <polygon points="2.20548008 1.4508902 3.14870738 1.01156147 2.80297278 0.38200263 2.69391058 0.43264497 2.98499042 0.9611762 2.15057802 1.351405"></polygon>
                                    <polygon points="1.89238995 0.782 1.68193205 0.0619533202 1.56371951 0.0912590401 1.74326408 0.709249836 1.09408431 0.910019724 1.13266414 1.01747403"></polygon>
                                </g>
                            </g>
                        </g>
                        <g transform="translate(2.720372, 12.596318)" id="Shape">
                            <path d="M9.5502382,17.5739204 C9.54974359,17.515309 9.56581851,11.6999231 7.53048536,8.08092373 L8.24816905,7.7379954 C10.3747583,11.5230605 10.3576942,17.3335621 10.355963,17.5788047 L9.5502382,17.5739204 Z" fill="#3BB44B"></path>
                            <path d="M7.51218467,5.23981131 C7.51218467,5.23981131 7.30370523,0.18817357 9.77553449,0.0434444444 C12.2523099,-0.0971715976 8.60157016,5.64340763 8.60157016,5.64340763 L7.51218467,5.23981131 Z" fill="#F77C9F"></path>
                            <path d="M8.74327683,5.3187311 C8.74327683,5.3187311 13.7381278,3.22337212 14.8193522,5.28042801 C15.9015658,7.33594149 8.75242717,6.40072913 8.75242717,6.40072913 L8.74327683,5.3187311 Z" fill="#F77C9F"></path>
                            <path d="M9.01877636,7.00380999 C9.01877636,7.00380999 14.3168252,8.31871137 13.7284829,10.5392623 C13.141377,12.758785 8.27562009,7.83979421 8.27562009,7.83979421 L9.01877636,7.00380999 Z" fill="#F77C9F"></path>
                            <path d="M7.88438108,8.25752926 C7.88438108,8.25752926 6.43368068,13.1356463 4.0254092,12.5847502 C1.61787965,12.0341111 6.97775515,7.57038725 6.97775515,7.57038725 L7.88438108,8.25752926 Z" fill="#F77C9F"></path>
                            <path d="M6.56772084,6.29867324 C6.56772084,6.29867324 1.45168962,4.46038199 2.29896197,2.31283826 C3.14376124,0.163238001 7.40139133,5.53955227 7.40139133,5.53955227 L6.56772084,6.29867324 Z" fill="#F77C9F"></path>
                            <path d="M6.3031028,7.58941026 C6.3031028,7.58941026 1.6500295,10.272426 0.283907954,8.36601183 C-1.0824609,6.46011177 6.13790201,6.51949441 6.13790201,6.51949441 L6.3031028,7.58941026 Z" fill="#F77C9F"></path>
                            <path d="M9.798534,7.33722682 C9.36550018,8.3320789 8.13861224,8.81510914 7.06060286,8.41665417 C5.97937849,8.01639974 5.45805622,6.88684418 5.89109004,5.89224918 C6.32387656,4.89842538 7.54903335,4.41308153 8.63001041,4.8130789 C9.7082671,5.21179093 10.2313205,6.34366009 9.798534,7.33722682 Z" fill="#EA477D"></path>
                        </g>
                        <g transform="translate(11.870716, 0.000000)" id="Shape">
                            <path d="M7.26364156,43.116426 C5.23795336,39.2526982 4.28236074,34.5038863 4.06027943,30.0648409 C3.54860212,19.8132373 8.2724051,10.6320638 15.4858434,3.98763445 C15.6174105,3.86604142 15.8696632,4.13750493 15.7185589,4.27683563 C8.44799277,10.9734497 3.89235826,20.115549 4.40626134,30.4039132 C4.61943961,34.6822913 5.60198865,39.3089961 7.55323757,43.0310796 C7.67046088,43.2544714 7.35440307,43.2894326 7.26364156,43.116426 Z" fill="#8AD0C8"></path>
                            <g transform="translate(1.236533, 37.531887)">
                                <path d="M4.87367077,3.00075148 C4.87367077,3.00075148 0.87348684,-1.56220053 0.171878073,0.6760881 C-0.530472614,2.91463379 5.31981184,4.10305786 5.31981184,4.10305786 L4.87367077,3.00075148 Z" fill="#8AD0C8"></path>
                                <g transform="translate(0.494613, 0.514135)" fill="#74C1B5">
                                    <path d="M4.47179758,3.01257659 C2.93676564,2.57761801 1.37378805,1.65885799 0.491150868,0.21747929 C0.425861931,0.110796187 0.577213558,0.139330703 0.616040691,0.202569362 C1.46553879,1.58919264 2.9731197,2.46090927 4.45176575,2.87838725 C4.52051698,2.8994668 4.58704245,3.04471006 4.47179758,3.01257659 Z"></path>
                                    <path d="M3.07501002,1.61412821 C3.1496966,1.74137673 3.64406246,2.52569034 3.44448605,2.63057396 C3.26766184,2.72337541 2.95333518,2.63931427 2.77205945,2.61849178 C2.58336453,2.59818343 2.39541153,2.57196252 2.20795315,2.5411144 C2.16269604,2.53443064 2.04646195,2.40049836 2.104579,2.410524 C2.47380772,2.47093491 2.87296054,2.55525312 3.25035038,2.51695003 C3.454131,2.49612755 3.24614617,2.1516568 3.19891061,2.05140039 C3.12125635,1.88739119 3.03494635,1.7280092 2.94393753,1.5719691 C2.89546544,1.48867916 3.05299973,1.57531098 3.07501002,1.61412821 Z"></path>
                                    <path d="M1.74128563,0.435472715 C1.80360689,0.728015779 1.99403295,1.54112097 1.55531108,1.58816437 C1.29415533,1.61567061 1.00109704,1.48533728 0.761209653,1.40050493 C0.566826681,1.33109665 0.373927549,1.25551874 0.184985322,1.17171466 C0.0907615148,1.12929849 0.115492173,0.980970414 0.225543601,1.02904208 C0.56113863,1.17788429 0.907862455,1.3123307 1.26423124,1.39562064 C1.54739727,1.46065878 1.65299718,1.39176463 1.65695409,1.06348915 C1.65967446,0.851665352 1.62505154,0.637013807 1.58177289,0.433416174 C1.55630031,0.314650888 1.72224302,0.346527285 1.74128563,0.435472715 Z"></path>
                                </g>
                            </g>
                            <g transform="translate(6.182664, 35.475345)">
                                <path d="M0.175834978,4.92618869 C0.175834978,4.92618869 2.50496835,-1.30976003 3.92154044,0.412593688 C5.33984367,2.13546154 0.393464769,5.95188889 0.393464769,5.95188889 L0.175834978,4.92618869 Z" fill="#8AD0C8"></path>
                                <g transform="translate(0.247307, 0.771203)" fill="#74C1B5">
                                    <path d="M0.270800705,4.4873741 C1.52637621,3.37298554 2.63900851,1.80307298 2.94888366,0.0722360289 C2.97138856,-0.0557836949 2.84278914,0.041130835 2.82893997,0.11722288 C2.53143015,1.78353583 1.45243154,3.28352597 0.243844288,4.35626956 C0.186963774,4.40562656 0.176576898,4.57066404 0.270800705,4.4873741 Z"></path>
                                    <path d="M1.06539675,2.55576726 C1.04214993,2.70769428 0.861368818,3.65601709 1.07974053,3.65858777 C1.27362889,3.66115845 1.53255888,3.43750953 1.6913297,3.33442538 C1.85751972,3.22825641 2.02074206,3.11566075 2.18149134,3.00100855 C2.22031847,2.9727311 2.28041397,2.79715385 2.23070535,2.83288626 C1.91341101,3.06013412 1.57633214,3.3231144 1.21847952,3.46424458 C1.02409655,3.54110782 1.09482623,3.128 1.10397657,3.01386193 C1.11881497,2.82748784 1.14280371,2.64137081 1.17149127,2.45628205 C1.18707158,2.35679684 1.07281594,2.509238 1.06539675,2.55576726 Z"></path>
                                    <path d="M1.8792827,0.854493097 C1.92355058,1.15140631 2.03063433,1.98430572 2.44833514,1.8236384 C2.69663095,1.72698093 2.92069071,1.47068442 3.11086947,1.28199671 C3.26568339,1.12724195 3.41480926,0.967602893 3.5592363,0.802822485 C3.63169713,0.721074951 3.55701054,0.596140039 3.47317361,0.691769231 C3.21696399,0.984569362 2.94566867,1.26940039 2.64791155,1.51181525 C2.41148646,1.70461604 2.29129546,1.68970611 2.17333022,1.38970809 C2.09814902,1.19793557 2.05536499,0.98482643 2.02469897,0.778915187 C2.0068929,0.657579224 1.86592815,0.764262327 1.8792827,0.854493097 Z"></path>
                                </g>
                            </g>
                            <g transform="translate(0.247307, 34.190007)">
                                <path d="M4.87292885,2.95884944 C4.87292885,2.95884944 0.872497614,-1.60435963 0.170888847,0.633671926 C-0.530719921,2.87247469 5.31931723,4.06141289 5.31931723,4.06141289 L4.87292885,2.95884944 Z" fill="#8AD0C8"></path>
                                <g transform="translate(0.494613, 0.514135)" fill="#74C1B5">
                                    <path d="M4.47080835,2.97016042 C2.9352818,2.53571598 1.37304613,1.61669888 0.490903561,0.174806049 C0.424872704,0.0683800131 0.576471638,0.0974286654 0.615051464,0.160667324 C1.46504418,1.54857594 2.97213048,2.41875016 4.45102383,2.83751348 C4.51977506,2.85730769 4.58580591,3.00332216 4.47080835,2.97016042 Z"></path>
                                    <path d="M3.0742681,1.57171203 C3.14895468,1.69973176 3.642084,2.4845595 3.44324951,2.58867193 C3.26667261,2.68147337 2.95209864,2.59689809 2.77107023,2.57736095 C2.582128,2.5570526 2.39392769,2.53031755 2.20646931,2.49998356 C2.1612122,2.49227153 2.04596734,2.35911045 2.10358977,2.36836489 C2.47281849,2.42903287 2.87221862,2.51283695 3.24911385,2.47504799 C3.45314178,2.45422551 3.24589886,2.10975477 3.19792139,2.01026956 C3.12051443,1.84600329 3.03370982,1.68636423 2.94344291,1.52955293 C2.89447621,1.44652005 3.05151589,1.53263774 3.0742681,1.57171203 Z"></path>
                                    <path d="M1.7402964,0.393313609 C1.80311227,0.686113741 1.99329103,1.499476 1.55456916,1.54574819 C1.29341341,1.57402564 0.999613196,1.44343524 0.760467733,1.35860289 C0.565837455,1.29022288 0.373432936,1.21258843 0.183996095,1.12904142 C0.0892776754,1.08739645 0.114750253,0.939068376 0.224059761,0.987654175 C0.560149404,1.13598225 0.907120535,1.2701716 1.26348932,1.35320447 C1.54640804,1.41952794 1.65126603,1.35011966 1.65645947,1.02081591 C1.65868523,0.810020381 1.62406231,0.594597633 1.58078366,0.391771203 C1.55531108,0.273005917 1.7212538,0.304882314 1.7402964,0.393313609 Z"></path>
                                </g>
                            </g>
                            <g transform="translate(5.193438, 32.390533)">
                                <path d="M0.0868046096,4.96294938 C0.0868046096,4.96294938 2.41643259,-1.27274227 3.8337466,0.450125575 C5.25130792,2.17299343 0.304929013,5.9883925 0.304929013,5.9883925 L0.0868046096,4.96294938 Z" fill="#8AD0C8"></path>
                                <g transform="translate(0.247307, 0.771203)" fill="#74C1B5">
                                    <path d="M0.182759563,4.52464892 C1.43784046,3.41103156 2.55022545,1.8403478 2.85960598,0.108996713 C2.8826055,-0.0187659435 2.75400607,0.0781485865 2.74040421,0.153983563 C2.4431417,1.81978238 1.36389579,3.32028665 0.154813919,4.39303024 C0.0986753254,4.44341552 0.0880411425,4.60845299 0.182759563,4.52464892 Z"></path>
                                    <path d="M0.977355604,2.59252794 C0.953614172,2.7441979 0.773080369,3.69329191 0.991204772,3.69560552 C1.18534044,3.69791913 1.44402312,3.47478435 1.60328856,3.37195726 C1.76873666,3.26476003 1.9317117,3.15319264 2.09295559,3.03751216 C2.13153541,3.00949178 2.19187822,2.83365746 2.1424169,2.86964694 C1.82487525,3.09715187 1.488291,3.36013215 1.13068568,3.50126233 C0.935560792,3.57761144 1.00678509,3.16501775 1.01544082,3.05113675 C1.03027921,2.86450559 1.05426795,2.67813149 1.08320282,2.49278567 C1.09853583,2.3938146 0.984774801,2.54599869 0.977355604,2.59252794 Z"></path>
                                    <path d="M1.79124156,0.891510848 C1.83476752,1.18868113 1.94209857,2.02158054 2.35979939,1.86039908 C2.6083425,1.76451282 2.83240226,1.50847337 3.02233371,1.31901446 C3.17665302,1.16528797 3.32652081,1.00513478 3.47119516,0.839840237 C3.54266676,0.758092702 3.46773286,0.633414859 3.38513247,0.72904405 C3.12793362,1.02158711 2.85713292,1.30616108 2.5593758,1.548833 C2.32344532,1.74086259 2.20275971,1.72698093 2.08528908,1.42672584 C2.00961327,1.23546746 1.96682923,1.02235832 1.93616321,0.815675871 C1.91860445,0.694596976 1.77739239,0.801280079 1.79124156,0.891510848 Z"></path>
                                </g>
                            </g>
                            <g transform="translate(0.000000, 29.819855)">
                                <path d="M4.50740973,3.74701907 C4.50740973,3.74701907 1.16976012,-1.40795989 0.182759563,0.708992768 C-0.805477531,2.82594543 4.80195186,4.91230703 4.80195186,4.91230703 L4.50740973,3.74701907 Z" fill="#8AD0C8"></path>
                                <g transform="translate(0.494613, 0.771203)" fill="#74C1B5">
                                    <path d="M4.03455955,3.51308744 C2.57965494,2.84316897 1.16159901,1.68816371 0.482742444,0.118508218 C0.432786515,0.00231360947 0.577955477,0.0547554241 0.607879574,0.12390664 C1.26151086,1.63417949 2.63134201,2.73314398 4.0328284,3.37761275 C4.09787003,3.40768968 4.14362175,3.56295858 4.03455955,3.51308744 Z"></path>
                                    <path d="M2.84377836,1.9064142 C2.89991696,2.0449737 3.28250024,2.90126627 3.07278426,2.97453057 C2.88631509,3.03931164 2.58707413,2.90692176 2.41198107,2.85936423 C2.22897421,2.8094931 2.04646195,2.75422354 1.86592815,2.69484089 C1.82264949,2.67993097 1.72595262,2.53006049 1.78184391,2.54856936 C2.13747077,2.66604931 2.51980674,2.8110355 2.89620736,2.83185799 C3.09998798,2.8429119 2.94171177,2.46810717 2.90758346,2.361167 C2.85292871,2.18610388 2.78838169,2.01386851 2.72012507,1.84497502 C2.68327639,1.75397304 2.82671421,1.86451216 2.84377836,1.9064142 Z"></path>
                                    <path d="M1.68539434,0.528788297 C1.70789924,0.829043393 1.78777927,1.66682709 1.35004662,1.6460046 C1.08938548,1.63315122 0.81710094,1.45834517 0.592299259,1.33649507 C0.409787003,1.23855227 0.230242426,1.13212623 0.0546547542,1.01953057 C-0.0328917751,0.963489809 0.0116234093,0.819531887 0.11351372,0.885084155 C0.424378091,1.0845687 0.748597018,1.27145694 1.08913818,1.4095023 C1.35919696,1.51901315 1.47172146,1.4668284 1.51945163,1.13983826 C1.54962303,0.930328074 1.54492421,0.711306377 1.52810736,0.50256739 C1.51895701,0.380203156 1.67822245,0.437529257 1.68539434,0.528788297 Z"></path>
                                </g>
                            </g>
                            <g transform="translate(4.451518, 28.534517)">
                                <path d="M0.136760539,5.13261407 C0.136760539,5.13261407 2.08281602,-1.24343655 3.60597724,0.370434583 C5.12913847,1.98430572 0.417700814,6.13826298 0.417700814,6.13826298 L0.136760539,5.13261407 Z" fill="#8AD0C8"></path>
                                <g transform="translate(0.247307, 0.771203)" fill="#74C1B5">
                                    <path d="M0.252994631,4.6680927 C1.43981891,3.46887179 2.45575434,1.82595201 2.65928765,0.0796909928 C2.67412605,-0.049357002 2.55072007,0.0562978304 2.54280626,0.133418146 C2.34693944,1.81361275 1.35969158,3.38481065 0.216640564,4.53930178 C0.163716956,4.59302893 0.163716956,4.75780934 0.252994631,4.6680927 Z"></path>
                                    <path d="M0.928883514,2.68712886 C0.91404512,2.84034122 0.791381056,3.79766141 1.01000007,3.78480802 C1.20413574,3.77323997 1.44946387,3.53211045 1.60229933,3.41874359 C1.76082285,3.30023537 1.91736791,3.17709993 2.07168722,3.05062262 C2.10779398,3.02003156 2.15799722,2.84059829 2.11026705,2.87967258 C1.80731649,3.12928534 1.48631255,3.41540171 1.13711565,3.58095332 C0.947678814,3.67118409 0.993183225,3.25524852 0.995161678,3.14162459 C0.998129357,2.95473636 1.0109893,2.76707692 1.02830076,2.58070283 C1.03794572,2.48096055 0.93284042,2.64111374 0.928883514,2.68712886 Z"></path>
                                    <path d="M1.63815879,0.935469428 C1.69998543,1.22801249 1.85850895,2.05011506 2.26607019,1.85937081 C2.50867795,1.74600394 2.71691009,1.4747975 2.89571274,1.27222814 C3.04038709,1.10821893 3.18036262,0.937783037 3.31415548,0.763491124 C3.38117556,0.676345168 3.29882247,0.557836949 3.22141551,0.659121631 C2.98325927,0.968888231 2.72977003,1.27119987 2.4468513,1.53392308 C2.22254423,1.74266206 2.1011167,1.73700657 1.96509808,1.44703419 C1.87755156,1.2614313 1.82190757,1.05269231 1.77887623,0.849094675 C1.75340365,0.730329389 1.61936349,0.846523997 1.63815879,0.935469428 Z"></path>
                                </g>
                            </g>
                            <g transform="translate(0.000000, 24.421433)">
                                <path d="M4.15128825,4.42464957 C4.15128825,4.42464957 1.73040414,-1.31644379 0.416711587,0.589199211 C-0.896980966,2.49484221 4.24773782,5.63415319 4.24773782,5.63415319 L4.15128825,4.42464957 Z" fill="#8AD0C8"></path>
                                <g transform="translate(0.494613, 0.771203)" fill="#74C1B5">
                                    <path d="M3.58965501,4.18943261 C2.27522054,3.24779356 1.07677285,1.83289283 0.670448138,0.149356345 C0.640029429,0.0249355687 0.774069595,0.104626561 0.791875669,0.178662064 C1.18311468,1.79844576 2.34372446,3.14856542 3.60919223,4.05524326 C3.66805119,4.09765943 3.68783572,4.26012623 3.58965501,4.18943261 Z"></path>
                                    <path d="M2.68772791,2.3714497 C2.71963046,2.51952071 2.95382979,3.44033728 2.7362,3.47195661 C2.54354817,3.50049112 2.27324208,3.31231755 2.1085359,3.23134122 C1.93789436,3.14702301 1.76898397,3.05756345 1.60205202,2.9639908 C1.56174105,2.94136884 1.4920006,2.77427482 1.54269845,2.8030664 C1.87260542,2.98764103 2.22328615,3.20460618 2.58732144,3.29689349 C2.78566132,3.34676463 2.6911902,2.94548192 2.6758572,2.83365746 C2.65112654,2.64933991 2.616009,2.46682183 2.57619264,2.28610322 C2.55541889,2.18995989 2.67808295,2.32646285 2.68772791,2.3714497 Z"></path>
                                    <path d="M1.78036007,0.785856016 C1.75266173,1.08765352 1.69405007,1.93212097 1.26868276,1.82749441 C1.01544082,1.76476989 0.778026501,1.53906443 0.577955477,1.3760835 C0.414733135,1.24369362 0.256951537,1.10410585 0.103868764,0.959119658 C0.0272037238,0.886883629 0.0944711135,0.753208416 0.183006869,0.83726956 C0.45553872,1.09408021 0.74191974,1.34137936 1.05204219,1.54292045 C1.29786493,1.7033307 1.41731401,1.67325378 1.51772048,1.35885996 C1.58177289,1.15757594 1.6124389,0.939839579 1.63049228,0.729815253 C1.64137377,0.606936884 1.78802657,0.694339908 1.78036007,0.785856016 Z"></path>
                                </g>
                            </g>
                            <g transform="translate(3.956905, 24.421433)">
                                <path d="M0.134534779,4.14804471 C0.134534779,4.14804471 3.66879311,-1.41772847 4.68769622,0.613877712 C5.70709395,2.64574096 0.134782086,5.20690664 0.134782086,5.20690664 L0.134534779,4.14804471 Z" fill="#8AD0C8"></path>
                                <g transform="translate(0.247307, 0.771203)" fill="#74C1B5">
                                    <path d="M0.150362401,3.78480802 C1.59488013,2.99201118 2.99414076,1.71669822 3.64876128,0.0907449047 C3.69698606,-0.0293057199 3.55305363,0.0349612097 3.52411876,0.106683103 C2.89447621,1.67171137 1.54146191,2.88584221 0.150857014,3.6495904 C0.0860626898,3.68532281 0.0427840383,3.84444773 0.150362401,3.78480802 Z"></path>
                                    <path d="M1.31690754,2.07864957 C1.2627474,2.22209336 0.892529447,3.11026233 1.10397657,3.16527482 C1.29168227,3.21386062 1.58795555,3.05627811 1.762554,2.99406772 C1.94457164,2.92877252 2.12560005,2.85782183 2.30539194,2.78327219 C2.34817598,2.76476331 2.4431417,2.60666667 2.38725042,2.62954569 C2.03384931,2.77735963 1.65349179,2.95499343 1.27832771,3.00743524 C1.07355786,3.03545562 1.22762986,2.64754043 1.26002702,2.53828665 C1.31121949,2.35808218 1.37403536,2.18096252 1.4393243,2.00615648 C1.47419452,1.91258383 1.33273516,2.03494806 1.31690754,2.07864957 Z"></path>
                                    <path d="M2.45328127,0.603337936 C2.43473328,0.905649573 2.3677132,1.74934583 2.80519854,1.69099145 C3.06536506,1.65603024 3.33567115,1.45834517 3.55799977,1.31747206 C3.73902818,1.20384813 3.91659431,1.0822551 4.09020353,0.955006575 C4.17651352,0.891510848 4.13001989,0.751408941 4.02986072,0.825444444 C3.72196403,1.05140697 3.40021817,1.26580145 3.06239738,1.4326384 C2.79406974,1.5647712 2.68080333,1.52209796 2.62763241,1.19896384 C2.59474064,0.992795529 2.59671909,0.773516765 2.61007364,0.563235371 C2.61724554,0.440099934 2.45921663,0.51156476 2.45328127,0.603337936 Z"></path>
                                </g>
                            </g>
                            <g transform="translate(1.236533, 19.023011)">
                                <path d="M3.2510923,5.09688166 C3.2510923,5.09688166 2.13450309,-1.13366864 0.459742932,0.407966469 C-1.21476992,1.94985865 3.08712804,6.30638527 3.08712804,6.30638527 L3.2510923,5.09688166 Z" fill="#8AD0C8"></path>
                                <g transform="translate(0.247307, 0.771203)" fill="#74C1B5">
                                    <path d="M2.82473576,4.83364431 C1.75562941,3.5842952 0.899454031,1.89870217 0.865078417,0.14755687 C0.862110738,0.0179947403 0.974635232,0.129305062 0.976119071,0.20616831 C1.00901085,1.89176134 1.84342325,3.50409007 2.87271323,4.70742406 C2.92118532,4.76397896 2.9053577,4.92798817 2.82473576,4.83364431 Z"></path>
                                    <path d="M2.34050947,2.82748784 C2.34026217,2.9807002 2.37043357,3.9418764 2.1535457,3.91925444 C1.96114118,3.89868902 1.73955448,3.64701972 1.59809512,3.5269691 C1.45119501,3.40203419 1.30676797,3.27195792 1.16605052,3.13879684 C1.13167491,3.10692045 1.09927775,2.92568771 1.14329832,2.96656147 C1.42176553,3.22928468 1.71432921,3.52902564 2.04621464,3.71051545 C2.22699575,3.80871532 2.2213077,3.39175148 2.23045804,3.27812755 C2.24579105,3.09149638 2.25098449,2.90383695 2.2514791,2.71694872 C2.25172641,2.61643524 2.34050947,2.78095858 2.34050947,2.82748784 Z"></path>
                                    <path d="M1.80162844,1.04755095 C1.71136153,1.33649507 1.47444183,2.14960026 1.0861705,1.94137541 C0.854444234,1.81695464 0.673415817,1.53700789 0.514397686,1.32698356 C0.385303652,1.15680473 0.262144975,0.980713346 0.145168962,0.800765943 C0.0872992227,0.711306377 0.18003919,0.596397107 0.2480485,0.700766601 C0.45553872,1.02030178 0.679845788,1.33418146 0.936550018,1.60872978 C1.14057795,1.82723734 1.26250009,1.82723734 1.42621705,1.54420579 C1.53033312,1.36271598 1.60650354,1.15680473 1.66907211,0.955777778 C1.70592079,0.837526627 1.82907947,0.959633794 1.80162844,1.04755095 Z"></path>
                                </g>
                            </g>
                            <g transform="translate(4.204212, 21.079553)">
                                <path d="M0.276488756,2.90872124 C0.276488756,2.90872124 4.91497097,-1.6220973 5.44717473,0.629558843 C5.97838926,2.88121499 0.0430313449,3.94496121 0.0430313449,3.94496121 L0.276488756,2.90872124 Z" fill="#8AD0C8"></path>
                                <g transform="translate(0.247307, 0.514135)" fill="#74C1B5">
                                    <path d="M0.192651826,2.86193491 C1.75983362,2.459881 3.39131513,1.57453978 4.38177798,0.152955293 C4.45498073,0.0480716634 4.30115604,0.0737784352 4.25738277,0.136245891 C3.30426321,1.50410322 1.73164067,2.34265812 0.223070535,2.72928797 C0.15258816,2.74779684 0.0756758135,2.8922689 0.192651826,2.86193491 Z"></path>
                                    <path d="M1.69429738,1.49407758 C1.60971853,1.62029783 1.05723563,2.3938146 1.24815631,2.50255424 C1.41805593,2.59895464 1.73831795,2.52132018 1.92033559,2.50512492 C2.11076166,2.48867258 2.30094042,2.46630769 2.49062457,2.43931558 C2.53637628,2.43263182 2.66176072,2.30229849 2.60364367,2.31052465 C2.22996343,2.3634806 1.82487525,2.43880145 1.45144232,2.39330046 C1.24865092,2.36785076 1.48186103,2.02800723 1.5372577,1.92929323 C1.6272773,1.76656936 1.72669454,1.60872978 1.82833755,1.45500329 C1.88348691,1.37274162 1.71976996,1.45603156 1.69429738,1.49407758 Z"></path>
                                    <path d="M3.11606291,0.344984878 C3.03098944,0.636242604 2.77972596,1.44446351 3.21449093,1.50050427 C3.472679,1.53392308 3.77637148,1.40975937 4.02194691,1.32981131 C4.22201793,1.26554438 4.4198632,1.19279421 4.6152354,1.11310322 C4.7131688,1.07325773 4.69931963,0.924158448 4.58605322,0.970687705 C4.23932939,1.11156082 3.88221869,1.23803813 3.51991455,1.31387311 C3.23204969,1.37402696 3.13189053,1.3028192 3.15315889,0.973772518 C3.16601884,0.762976989 3.21696399,0.548839579 3.27582296,0.346527285 C3.30995127,0.228019066 3.1420301,0.256553583 3.11606291,0.344984878 Z"></path>
                                </g>
                            </g>
                            <g transform="translate(2.720372, 14.652860)">
                                <path d="M2.69984593,5.44649375 C2.69984593,5.44649375 2.43201291,-0.921330703 0.575729718,0.350126233 C-1.27882232,1.6213261 2.37711085,6.6230927 2.37711085,6.6230927 L2.69984593,5.44649375 Z" fill="#8AD0C8"></path>
                                <g transform="translate(0.247307, 0.771203)" fill="#74C1B5">
                                    <path d="M2.20844776,5.15292242 C1.32210098,3.74367719 0.70432914,1.93469165 0.903410937,0.188430638 C0.918496638,0.059382643 1.01395698,0.187659435 1.00530125,0.264008547 C0.812896728,1.94497436 1.41929246,3.67761078 2.27274747,5.0344142 C2.31256383,5.09765286 2.27522054,5.25832018 2.20844776,5.15292242 Z"></path>
                                    <path d="M1.9994737,3.08224195 C1.97894725,3.23494017 1.88027193,4.19483103 1.66907211,4.13801907 C1.48285025,4.08789086 1.29786493,3.8033169 1.17470625,3.66192965 C1.04660145,3.51462985 0.92195893,3.36270283 0.79978948,3.2084622 C0.77085461,3.17118738 0.763930025,2.98609862 0.801026012,3.03365615 C1.0409134,3.33828139 1.28846728,3.68198093 1.59141784,3.91385602 C1.75661864,4.0398192 1.80657457,3.62465483 1.83081061,3.51308744 C1.87037966,3.33005523 1.90129299,3.14368113 1.92627095,2.95859237 C1.93962551,2.85910717 2.00565636,3.03622682 1.9994737,3.08224195 Z"></path>
                                    <path d="M1.7061681,1.22904076 C1.57880521,1.50230375 1.23628559,2.27376397 0.881153344,2.00564234 C0.670448138,1.84600329 0.528741468,1.53957857 0.40063666,1.30590401 C0.296273283,1.11670217 0.198339877,0.922616042 0.107083749,0.725188034 C0.0615793384,0.626731098 0.168910394,0.527245891 0.220844776,0.641383958 C0.383572506,0.991510191 0.562622469,1.33880868 0.77951034,1.65191716 C0.950646493,1.90050164 1.0710848,1.91952465 1.26942467,1.66348521 C1.39728218,1.499476 1.49941979,1.30641815 1.58795555,1.11670217 C1.63964263,1.00539185 1.74425331,1.14600789 1.7061681,1.22904076 Z"></path>
                                </g>
                            </g>
                            <g transform="translate(5.193438, 16.966469)">
                                <path d="M0.389260557,2.98686982 C0.389260557,2.98686982 5.12147196,-1.42852531 5.60421441,0.83726956 C6.08572032,3.1033215 0.133298247,4.01796844 0.133298247,4.01796844 L0.389260557,2.98686982 Z" fill="#8AD0C8"></path>
                                <g transform="translate(0.247307, 0.771203)" fill="#74C1B5">
                                    <path d="M0.295284056,2.687643 C1.86914313,2.32517751 3.51768879,1.48045299 4.53857036,0.0838040763 C4.61424617,-0.0197942143 4.45967956,0.00205654175 4.41541168,0.0634957265 C3.43286264,1.40795989 1.84367055,2.2066693 0.327681218,2.55602433 C0.25744615,2.57196252 0.177318818,2.71463511 0.295284056,2.687643 Z"></path>
                                    <path d="M1.82438064,1.35706049 C1.73782334,1.48122419 1.16827628,2.2408593 1.35721851,2.35422617 C1.52538699,2.45499671 1.84663823,2.3858455 2.02890318,2.37402038 C2.21957656,2.36245233 2.41000262,2.34471466 2.59943946,2.32260684 C2.64519118,2.31720842 2.77428521,2.18970283 2.71542625,2.19638659 C2.3414987,2.24034517 1.93443207,2.3053833 1.56273028,2.24985667 C1.3604335,2.21952268 1.60155741,1.88559172 1.65843793,1.78816305 C1.75167251,1.62775279 1.85455204,1.47222682 1.95965734,1.32107101 C2.01604324,1.24009467 1.85108975,1.3195286 1.82438064,1.35706049 Z"></path>
                                    <path d="M3.27013491,0.243186062 C3.17937339,0.532130178 2.91030383,1.3346956 3.34333765,1.4015332 C3.6007838,1.44163577 3.90694935,1.32544116 4.15400862,1.25166272 C4.35506887,1.19202301 4.55439798,1.12415713 4.75125401,1.0496075 C4.84968203,1.01233268 4.83855324,0.862976331 4.72405029,0.906163708 C4.37559532,1.03855358 4.01625886,1.1562906 3.65271819,1.22287114 C3.36361679,1.27557002 3.26543608,1.20179158 3.29288711,0.87325904 C3.31094049,0.662463511 3.36658447,0.449868508 3.43014226,0.248841552 C3.46649633,0.131361604 3.29783324,0.155783037 3.27013491,0.243186062 Z"></path>
                                </g>
                            </g>
                            <g transform="translate(4.204212, 10.796844)">
                                <path d="M2.45451781,5.65626101 C2.45451781,5.65626101 2.8526814,-0.72570217 0.88362641,0.316193294 C-1.08641781,1.35808876 2.01159172,6.79070085 2.01159172,6.79070085 L2.45451781,5.65626101 Z" fill="#8AD0C8"></path>
                                <g transform="translate(0.494613, 0.771203)" fill="#74C1B5">
                                    <path d="M1.66857749,5.33158448 C0.937786551,3.81874096 0.513903073,1.93957594 0.893271367,0.222363577 C0.92121701,0.0953721236 1.0035701,0.234959895 0.986505947,0.310280736 C0.620739516,1.96271203 1.04066609,3.76475674 1.74450062,5.22130243 C1.7776397,5.28968245 1.72298494,5.44520842 1.66857749,5.33158448 Z"></path>
                                    <path d="M1.67723323,3.24162393 C1.64112646,3.39123734 1.4432812,4.33647535 1.2402425,4.25447074 C1.06045061,4.18146351 0.907615148,3.87529586 0.800531399,3.71951282 C0.688748825,3.55678895 0.581170463,3.39020907 0.476312473,3.22131558 C0.451087202,3.18069888 0.463452531,2.99509599 0.495849693,3.04728074 C0.701114154,3.38018343 0.910830134,3.75293162 1.18707158,4.02131032 C1.33718668,4.16681065 1.42943203,3.75884418 1.46553879,3.65087574 C1.52415045,3.47298488 1.57336446,3.291238 1.61738503,3.10923406 C1.64211569,3.01180539 1.68836202,3.19663708 1.67723323,3.24162393 Z"></path>
                                    <path d="M1.57954713,1.35757462 C1.4244859,1.61515648 1.00579586,2.34214398 0.682566161,2.03212032 C0.490161641,1.84728863 0.381841359,1.5241545 0.279456435,1.27634122 C0.196114118,1.07454306 0.119201772,0.868888889 0.049461316,0.661178172 C0.0140964751,0.557579882 0.130577874,0.471205128 0.17064154,0.591512821 C0.295531363,0.960662064 0.4360015,1.32801183 0.617771837,1.66682709 C0.762198879,1.93571992 0.878185665,1.96939579 1.10224543,1.73803485 C1.24543594,1.59047798 1.36686347,1.41053057 1.47444183,1.23186851 C1.53750501,1.12672781 1.62702999,1.27994017 1.57954713,1.35757462 Z"></path>
                                </g>
                            </g>
                            <g transform="translate(6.429971, 13.881657)">
                                <path d="M0.404593565,2.44599934 C0.404593565,2.44599934 5.55054888,-1.38096778 5.79142549,0.937783037 C6.03279671,3.25627679 0.0435259581,3.44290796 0.0435259581,3.44290796 L0.404593565,2.44599934 Z" fill="#8AD0C8"></path>
                                <g transform="translate(0.247307, 0.771203)" fill="#74C1B5">
                                    <path d="M0.259919216,2.16425312 C1.8567778,1.99433136 3.57654776,1.3529474 4.73320063,0.0843182117 C4.81876871,-0.00976857331 4.66321287,-0.00642669297 4.61350425,0.049357002 C3.49988272,1.2701716 1.84317594,1.87350953 0.306412853,2.03674753 C0.234446638,2.04445957 0.140222831,2.17684944 0.259919216,2.16425312 Z"></path>
                                    <path d="M1.91341101,1.02338659 C1.81424107,1.13675345 1.17173858,1.8251808 1.34608971,1.96116963 C1.50214017,2.08224852 1.82734832,2.0521716 2.00961327,2.06296844 C2.19929742,2.07402235 2.38922887,2.07967784 2.58039686,2.08096318 C2.62590127,2.08096318 2.76661871,1.970167 2.70800705,1.96939579 C2.33284297,1.96708218 1.92305597,1.98302038 1.56050452,1.88224984 C1.36340118,1.82775148 1.63716956,1.52364037 1.70369503,1.4334096 C1.81300454,1.28482446 1.93072247,1.14266601 2.05017155,1.00462064 C2.11447126,0.930585141 1.94284049,0.989196581 1.91341101,1.02338659 Z"></path>
                                    <path d="M3.46031367,0.0886883629 C3.34061728,0.365807364 2.99018386,1.13341157 3.41208888,1.25294806 C3.66285776,1.32415582 3.97817365,1.2454931 4.23042636,1.20179158 C4.43569082,1.16734451 4.64021336,1.12415713 4.84325206,1.07325773 C4.94464776,1.04832216 4.94959389,0.897937541 4.83113404,0.927243261 C4.47179758,1.01695989 4.10454731,1.09048126 3.73630781,1.11284615 C3.44522797,1.13006969 3.35545568,1.04446614 3.41777694,0.72004668 C3.45734599,0.512078895 3.53425833,0.306938856 3.61809526,0.114395135 C3.66632005,0.00128533859 3.49716235,0.00488428665 3.46031367,0.0886883629 Z"></path>
                                </g>
                            </g>
                            <g transform="translate(6.924584, 6.426693)">
                                <path d="M1.84985322,5.81101578 C1.84985322,5.81101578 3.0517632,-0.479174227 0.977108297,0.265293886 C-1.09804122,1.01027613 1.2704139,6.8739908 1.2704139,6.8739908 L1.84985322,5.81101578 Z" fill="#8AD0C8"></path>
                                <g transform="translate(0.494613, 0.771203)" fill="#74C1B5">
                                    <path d="M1.01074199,5.4405812 C0.481753218,3.82748126 0.301961334,1.89484615 0.894755206,0.243186062 C0.938528471,0.120821828 1.00134434,0.271977646 0.974635232,0.344727811 C0.405088178,1.93443458 0.590568113,3.7889211 1.09952505,5.34238133 C1.1237611,5.41487442 1.05006374,5.56166009 1.01074199,5.4405812 Z"></path>
                                    <path d="M1.28500499,3.36270283 C1.23010293,3.50640368 0.915034346,4.41770874 0.725597506,4.30562722 C0.557181725,4.20665615 0.445151844,3.87915187 0.358841848,3.70845891 C0.269316866,3.53005391 0.184243402,3.34830703 0.10337415,3.16501775 C0.0833423174,3.1208021 0.119201772,2.93802696 0.144921656,2.99458185 C0.3044344,3.35601907 0.464441757,3.75833005 0.702597994,4.06629717 C0.831692028,4.23287705 0.975129845,3.84084878 1.02434385,3.7380217 C1.10422388,3.57041354 1.17619009,3.3963787 1.24321018,3.22234385 C1.27857502,3.12851414 1.30107992,3.31951545 1.28500499,3.36270283 Z"></path>
                                    <path d="M1.42720627,1.47428337 C1.24172634,1.70718672 0.736973608,2.36887903 0.456527947,2.01206903 C0.290337925,1.79947403 0.225296294,1.46220118 0.155308532,1.19999211 C0.0979334057,0.987140039 0.0484720897,0.771203156 0.00593535792,0.554238001 C-0.0150857014,0.446012492 0.110546041,0.377375411 0.135029393,0.503338593 C0.210705206,0.888683103 0.303445174,1.27531295 0.439216486,1.63906377 C0.547536768,1.92800789 0.658082809,1.97813609 0.908357068,1.78199343 C1.06811712,1.65628731 1.21130763,1.49510585 1.33916513,1.33315319 C1.41508825,1.2382952 1.48309756,1.40358974 1.42720627,1.47428337 Z"></path>
                                </g>
                            </g>
                            <g transform="translate(8.408424, 10.539776)">
                                <path d="M0.555450579,1.59896121 C0.555450579,1.59896121 6.11539711,-1.44600592 6.06024774,0.896395135 C6.00460376,3.23828205 0.0729554411,2.53700131 0.0729554411,2.53700131 L0.555450579,1.59896121 Z" fill="#8AD0C8"></path>
                                <g transform="translate(0.494613, 0.257068)" fill="#74C1B5">
                                    <path d="M0.100159165,1.84368968 C1.69578122,1.91104142 3.47416284,1.52801052 4.77524275,0.437015122 C4.87119771,0.356295858 4.71860955,0.335987508 4.66148173,0.384316239 C3.40936851,1.4341808 1.6987489,1.78867719 0.16198581,1.72389612 C0.0900195951,1.72081131 -0.0197845264,1.83880539 0.100159165,1.84368968 Z"></path>
                                    <path d="M1.87483118,0.953978304 C1.76329592,1.05217817 1.04214993,1.64189152 1.19671654,1.80307298 C1.33496092,1.94600263 1.66016907,1.96451151 1.8379825,2.00204339 C2.02420436,2.04188889 2.21116813,2.07556476 2.39887383,2.10487048 C2.44363632,2.11181131 2.59671909,2.02183761 2.53884935,2.01284024 C2.16912601,1.955 1.7628013,1.90975608 1.41879785,1.75628665 C1.23109216,1.67248258 1.53948346,1.41053057 1.61639581,1.33083958 C1.74301678,1.19896384 1.87680964,1.0750572 2.01258095,0.955006575 C2.0857837,0.890996713 1.90846488,0.924158448 1.87483118,0.953978304 Z"></path>
                                    <path d="M3.52016186,0.253211703 C3.36584255,0.511307692 2.92365839,1.22287114 3.32355313,1.40410388 C3.5631932,1.51232939 3.88394984,1.48045299 4.13768639,1.4747975 C4.344682,1.47042735 4.55241952,1.45783103 4.7581786,1.43726561 C4.86180006,1.42749704 4.88554149,1.27865483 4.7655978,1.29047995 C4.39933675,1.32646943 4.02714035,1.34472124 3.66186853,1.31258777 C3.37276714,1.28662393 3.29511287,1.18842406 3.39725049,0.874544379 C3.46278673,0.673517423 3.56467704,0.480716634 3.67126618,0.301540434 C3.73358744,0.196656805 3.56616088,0.175320184 3.52016186,0.253211703 Z"></path>
                                </g>
                            </g>
                            <g transform="translate(9.644957, 3.084813)">
                                <path d="M1.92676556,5.42490007 C1.92676556,5.42490007 3.90917511,-0.607193951 1.31764946,0.185859961 C-1.2741235,0.97917094 1.1314276,6.45959763 1.1314276,6.45959763 L1.92676556,5.42490007 Z" fill="#8AD0C8"></path>
                                <g transform="translate(0.494613, 0.771203)" fill="#74C1B5">
                                    <path d="M0.97982867,5.04906706 C0.466914823,3.53596647 0.406819324,1.70538725 1.26398393,0.110024984 C1.32803633,-0.00771203156 1.39184143,0.132904011 1.35375622,0.20282643 C0.528246855,1.73854898 0.602438829,3.49483563 1.09556815,4.95189546 C1.11856766,5.02027548 1.01766658,5.16269099 0.97982867,5.04906706 Z"></path>
                                    <path d="M1.48383948,3.06167653 C1.40494868,3.2004931 0.946194975,4.07940763 0.724608279,3.98120776 C0.527504935,3.8940618 0.41794812,3.58712295 0.326691992,3.42799803 C0.232220879,3.26193228 0.14319051,3.09252465 0.0593535792,2.92157462 C0.0390744396,2.88018672 0.0974387925,2.70538067 0.123405983,2.75782249 C0.289101392,3.09483826 0.450592589,3.47092834 0.715952549,3.75421696 C0.859884979,3.90768639 1.06712789,3.52876857 1.1351372,3.42928337 C1.24617786,3.26604536 1.34881009,3.09818014 1.44451773,2.92980079 C1.49546289,2.83905588 1.50758091,3.01977449 1.48383948,3.06167653 Z"></path>
                                    <path d="M1.81250992,1.25911769 C1.56792372,1.48842209 0.896733659,2.13828928 0.585374675,1.81027087 C0.399647433,1.61541354 0.347465745,1.29716371 0.28415526,1.05063577 C0.231973572,0.850122945 0.189189534,0.64678238 0.155308532,0.442156476 C0.138244378,0.340357659 0.297509816,0.269921105 0.317294342,0.388686391 C0.377637148,0.752180145 0.458011786,1.11618803 0.595019631,1.45654569 C0.7028453,1.72698093 0.833670481,1.77042538 1.15516903,1.57325444 C1.36018619,1.44703419 1.54789188,1.28842341 1.7175442,1.12852728 C1.81671414,1.03495464 1.88744382,1.18996647 1.81250992,1.25911769 Z"></path>
                                </g>
                            </g>
                            <g transform="translate(10.881490, 7.454964)">
                                <path d="M0.695673409,0.798709402 C0.695673409,0.798709402 6.09289221,-1.24215122 5.46992694,1.39382117 C4.84720897,4.03005062 0.0613320318,1.73803485 0.0613320318,1.73803485 L0.695673409,0.798709402 Z" fill="#8AD0C8"></path>
                                <g transform="translate(0.494613, 0.257068)" fill="#74C1B5">
                                    <path d="M0.110051428,1.11927285 C1.42745358,1.59870414 3.00848455,1.61412821 4.36446652,0.7087357 C4.4651203,0.641641026 4.34171432,0.580458909 4.28236074,0.620561473 C2.97757122,1.49227811 1.46009805,1.46117291 0.191167986,0.99947929 C0.132061714,0.978142669 0.0111287961,1.08354043 0.110051428,1.11927285 Z"></path>
                                    <path d="M1.81300454,0.560664694 C1.6950393,0.6434405 0.947184201,1.12878435 1.0372038,1.35011966 C1.11708382,1.54677646 1.38466954,1.65037475 1.52439776,1.73777778 C1.66956672,1.82903682 1.81795067,1.9143833 1.96732384,1.9956167 C2.0034306,2.01438264 2.1535457,1.95165812 2.10729937,1.92646548 C1.81226262,1.76759763 1.48433409,1.61361407 1.23307061,1.35320447 C1.09779391,1.21078895 1.41953977,0.992795529 1.5033767,0.922101907 C1.64186838,0.804621959 1.78456428,0.698195924 1.92701287,0.596654175 C2.00441983,0.542927022 1.84836938,0.535986193 1.81300454,0.560664694 Z"></path>
                                    <path d="M3.3599072,0.183546351 C3.1684919,0.436758054 2.62367551,1.13032676 2.91327151,1.43649441 C3.08638612,1.61901249 3.36188565,1.66399934 3.57654776,1.72158251 C3.75040429,1.76914004 3.92698118,1.80744313 4.10454731,1.83649178 C4.19283576,1.85088757 4.24946896,1.68867784 4.14658943,1.67171137 C3.83201546,1.61978369 3.51546303,1.54703353 3.21918975,1.4182426 C2.98350658,1.31592965 2.94270099,1.18482512 3.10493411,0.855778435 C3.20880287,0.644982906 3.34160651,0.452696252 3.47515206,0.276604865 C3.55305363,0.173263642 3.41876616,0.106940171 3.3599072,0.183546351 Z"></path>
                                </g>
                            </g>
                            <g transform="translate(12.612636, 0.514135)">
                                <path d="M1.24147903,5.13672715 C1.24147903,5.13672715 2.88953008,-0.24678501 1.01222583,0.175320184 C-0.86483111,0.597425378 0.635083297,6.0043307 0.635083297,6.0043307 L1.24147903,5.13672715 Z" fill="#8AD0C8"></path>
                                <g transform="translate(0.247307, 0.771203)" fill="#74C1B5">
                                    <path d="M0.65659897,4.67888955 C0.350433424,3.20512032 0.378626374,1.4899645 1.0522895,0.106683103 C1.10175081,0.00462721893 1.14206179,0.143957922 1.11287961,0.204625904 C0.46493637,1.53572255 0.448366829,3.18301249 0.743403579,4.60228337 C0.757500054,4.66886391 0.679103869,4.78942867 0.65659897,4.67888955 Z"></path>
                                    <path d="M1.09309508,2.88687048 C1.03151575,3.00666404 0.670695445,3.7706693 0.516376139,3.65164694 C0.379368294,3.54599211 0.312842824,3.24625115 0.254725777,3.08686917 C0.193888359,2.92054635 0.136760539,2.75165286 0.083589624,2.5817311 C0.0707296819,2.54060026 0.119696385,2.38404602 0.135524006,2.43648784 C0.240629302,2.77144707 0.341035774,3.14213872 0.519096511,3.43905194 C0.615793384,3.59971926 0.778521114,3.27170085 0.831197415,3.18738264 C0.917012798,3.04882314 0.996150904,2.90460815 1.07034288,2.75910782 C1.11065385,2.6804451 1.11189038,2.85062393 1.09309508,2.88687048 Z"></path>
                                    <path d="M1.3980241,1.24600723 C1.21476992,1.42981065 0.711253724,1.95371466 0.502279664,1.60950099 C0.377389841,1.40513215 0.35290649,1.10179224 0.317294342,0.864004602 C0.287864859,0.670946746 0.26535996,0.476089415 0.249532339,0.280975016 C0.240876609,0.183289283 0.357605315,0.137017094 0.367250271,0.250383958 C0.395937835,0.596911243 0.439463793,0.946266272 0.523053417,1.28045431 C0.58933158,1.54549112 0.681082321,1.60230309 0.918002025,1.4580881 C1.06861173,1.36580079 1.20858726,1.24009467 1.33595014,1.11233202 C1.41038943,1.03778238 1.45366808,1.19022354 1.3980241,1.24600723 Z"></path>
                                </g>
                            </g>
                            <g transform="translate(13.354555, 4.627219)">
                                <path d="M0.673415817,0.95783432 C0.673415817,0.95783432 5.80527466,-1.09305194 5.53323742,0.955263642 C5.25946904,3.00306509 0.164458876,1.72672387 0.164458876,1.72672387 L0.673415817,0.95783432 Z" fill="#8AD0C8"></path>
                                <g transform="translate(0.494613, 0.257068)" fill="#74C1B5">
                                    <path d="M0.165448102,1.14549375 C1.54789188,1.38251019 3.13238514,1.24472189 4.37015457,0.432902038 C4.4611634,0.37300526 4.33009091,0.338558185 4.27593077,0.374290598 C3.08539689,1.1555194 1.56198836,1.27531295 0.230242426,1.04755095 C0.168663088,1.03701118 0.0613320318,1.12801315 0.165448102,1.14549375 Z"></path>
                                    <path d="M1.79569308,0.562721236 C1.68885663,0.636499671 1.00505394,1.07325773 1.12425571,1.23186851 C1.23059754,1.37299869 1.51227974,1.4254405 1.66338406,1.47839645 C1.82166027,1.53366601 1.9806784,1.58353715 2.14167498,1.63083761 C2.18050212,1.64163445 2.32171417,1.5799382 2.27225286,1.56528534 C1.95545313,1.4740263 1.60699816,1.38842275 1.32135906,1.21541617 C1.16654514,1.12132939 1.45985074,0.92621499 1.53453733,0.864518738 C1.65695409,0.763234057 1.78555351,0.669147272 1.91538946,0.579430638 C1.98587184,0.531358974 1.82833755,0.540613412 1.79569308,0.562721236 Z"></path>
                                    <path d="M3.29486556,0.131618672 C3.13609474,0.340614727 2.68228717,0.915418146 3.0141726,1.11927285 C3.21127594,1.24086588 3.49320544,1.24883498 3.71553406,1.27197107 C3.89582055,1.29099408 4.07759089,1.30333333 4.25960853,1.30847469 C4.35037005,1.3107883 4.38548758,1.18302564 4.27988767,1.17994083 C3.95715259,1.17042932 3.63194443,1.14497962 3.31687585,1.07659961 C3.0668489,1.02184418 3.00873185,0.926472058 3.12793362,0.662977646 C3.20459866,0.494084155 3.31168241,0.336244576 3.42173384,0.190744247 C3.48677547,0.1059119 3.34210112,0.0681229454 3.29486556,0.131618672 Z"></path>
                                </g>
                            </g>
                            <g transform="translate(14.838395, 0.000000)">
                                <path d="M0.366508352,4.75858054 C0.366508352,4.75858054 5.36630548,0.989453649 3.67324463,0.0992281394 C1.97993648,-0.790483235 0.102632231,4.59148652 0.102632231,4.59148652 L0.366508352,4.75858054 Z" fill="#8AD0C8"></path>
                                <g transform="translate(0.494613, 0.257068)" fill="#74C1B5">
                                    <path d="M0.127857502,4.06064168 C0.719662148,2.66116502 1.70592079,1.28508153 3.00625879,0.602566732 C3.10221374,0.55218146 3.05423626,0.692283366 2.99760306,0.721846154 C1.74722099,1.37865417 0.808197903,2.70795135 0.238403543,4.05601446 C0.211694432,4.11873899 0.0833423174,4.16552531 0.127857502,4.06064168 Z"></path>
                                    <path d="M1.47444183,2.8907265 C1.35993888,2.94728139 0.649674386,3.3310835 0.597245391,3.13314135 C0.550504447,2.95730703 0.667480459,2.67016239 0.711995644,2.50204011 C0.758241974,2.32646285 0.80918713,2.15217094 0.863347271,1.97916437 C0.876207213,1.9375194 1.00183896,1.8418902 0.985022108,1.89510322 C0.878432972,2.23648915 0.747855098,2.60383892 0.719414841,2.96193425 C0.70358722,3.15602038 1.01420428,2.99612426 1.10199812,2.96193425 C1.24642516,2.90589349 1.38887375,2.84059829 1.52884928,2.77144707 C1.60403048,2.73391519 1.50955936,2.87324589 1.47444183,2.8907265 Z"></path>
                                    <path d="M2.63356777,1.75628665 C2.38823964,1.78533531 1.70320042,1.8809645 1.73436105,1.46322945 C1.75290904,1.21490204 1.90401336,0.951921762 2.01035519,0.735470743 C2.09617057,0.559122288 2.18841593,0.385858646 2.28585472,0.216451019 C2.33358489,0.13187574 2.45006629,0.170692965 2.39368039,0.268892834 C2.22106039,0.569662064 2.05783805,0.88225641 1.93517399,1.20924655 C1.83724058,1.46862788 1.87656233,1.57505391 2.14093306,1.61284287 C2.31107999,1.63700723 2.48963534,1.62672452 2.65978227,1.60667324 C2.76018874,1.59484813 2.70825436,1.74754635 2.63356777,1.75628665 Z"></path>
                                </g>
                            </g>
                        </g>
                        <g transform="translate(16.074928, 17.994740)" id="Shape">
                            <path d="M1.04907451,13.7274162 C1.06910635,13.6824293 3.0067534,9.20199606 5.78672666,6.99532676 L5.34899402,6.52694938 C2.4428944,8.83516042 0.505741956,13.3122518 0.425120011,13.5014536 L1.04907451,13.7274162 Z" fill="#3BB44B"></path>
                            <path d="M6.75048041,4.81333596 C6.75048041,4.81333596 8.6070109,0.984312295 6.75048041,0.169664694 C4.8934553,-0.644468771 5.77906016,4.81333596 5.77906016,4.81333596 L6.75048041,4.81333596 Z" fill="#F77C9F"></path>
                            <path d="M5.77930747,4.52362064 C5.77930747,4.52362064 2.63678276,1.48867916 1.11510537,2.76373504 C-0.407561244,4.03801972 5.40958413,5.35343524 5.40958413,5.35343524 L5.77930747,4.52362064 Z" fill="#F77C9F"></path>
                            <path d="M5.00177558,5.74212163 C5.00177558,5.74212163 0.482742444,5.24598093 0.191167986,7.12283235 C-0.100406471,8.99865549 5.29137158,6.59738593 5.29137158,6.59738593 L5.00177558,5.74212163 Z" fill="#F77C9F"></path>
                            <path d="M5.45459393,7.03028797 C5.45459393,7.03028797 4.93623934,11.1981269 6.97429286,11.4598218 C9.00962601,11.7220309 6.38298283,6.7601098 6.38298283,6.7601098 L5.45459393,7.03028797 Z" fill="#F77C9F"></path>
                            <path d="M7.12539718,5.8976476 C7.12539718,5.8976476 11.6760856,5.93929257 11.7465679,4.04496055 C11.8145772,2.14908613 6.73762046,5.0750309 6.73762046,5.0750309 L7.12539718,5.8976476 Z" fill="#F77C9F"></path>
                            <path d="M6.89886435,6.96602104 C6.89886435,6.96602104 9.57843115,10.3564872 11.2690189,9.27757396 C12.959854,8.19968902 7.37913373,6.18941946 7.37913373,6.18941946 L6.89886435,6.96602104 Z" fill="#F77C9F"></path>
                            <path d="M4.28977994,5.77682577 C4.28977994,6.66602301 5.07176334,7.38735503 6.03576439,7.38735503 C7.0019912,7.38735503 7.78174885,6.66602301 7.78174885,5.77682577 C7.78174885,4.88891387 7.00223851,4.16681065 6.03576439,4.16681065 C5.07176334,4.16681065 4.28977994,4.88891387 4.28977994,5.77682577 Z" fill="#EA477D"></path>
                        </g>
                    </g>
                    <path d="M20.3358877,28.962963 L15.6246471,28.962963 L15.6243955,28.962963 L10.9134065,28.962963 C10.9134065,28.962963 1.01990196,50.6511147 11.6986972,68 L15.6243955,68 L15.6246471,68 L19.5503454,68 C30.2296438,50.650859 20.3358877,28.962963 20.3358877,28.962963 Z" id="Shape" fill="#43C487"></path>
                </g>
                <g id="Group-22" transform="translate(268.000000, 51.000000)" fill-rule="nonzero">
                    <g id="Group" transform="translate(32.325963, 248.540461)" fill="#434C6D">
                        <path d="M5.62012335,16.1064391 C2.69452863,16.1064391 0.319889868,13.7351634 0.319889868,10.813712 L0.319889868,5.52036461 C0.319889868,2.59891323 2.69452863,0.227637507 5.62012335,0.227637507 C8.54571806,0.227637507 10.9203568,2.59891323 10.9203568,5.52036461 L10.9203568,10.8130917 C10.920978,13.7351634 8.54633921,16.1064391 5.62012335,16.1064391" id="Shape"></path>
                        <path d="M69.2254097,16.1064391 C66.299815,16.1064391 63.9251762,13.7351634 63.9251762,10.813712 L63.9251762,5.52036461 C63.9251762,2.59891323 66.299815,0.227637507 69.2254097,0.227637507 C72.1510044,0.227637507 74.5256432,2.59891323 74.5256432,5.52036461 L74.5256432,10.8130917 C74.5262643,13.7351634 72.1516256,16.1064391 69.2254097,16.1064391" id="Shape"></path>
                    </g>
                    <g id="Group" transform="translate(26.735654, 126.968386)" fill="#D1D4D1">
                        <polygon id="Shape" points="0.609964758 127.092439 85.4168062 127.092439 85.4168062 111.213638 0.609964758 111.213638"></polygon>
                        <path d="M43.0130749,90.042109 C40.0874802,90.042109 37.7128414,87.6708332 37.7128414,84.7493819 L37.7128414,5.35537394 C37.7128414,2.43392256 40.0874802,0.0626468344 43.0130749,0.0626468344 C45.9386696,0.0626468344 48.3133084,2.43392256 48.3133084,5.35537394 L48.3133084,84.7493819 C48.3139295,87.6708332 45.9392907,90.042109 43.0130749,90.042109" id="Shape"></path>
                    </g>
                    <path d="M122.753548,169.37409 L16.7445308,169.37409 C16.7445308,157.682082 26.2374955,148.202562 37.9460858,148.202562 L101.551372,148.202562 C113.260584,148.201941 122.753548,157.682082 122.753548,169.37409" id="Shape" fill="#88C057"></path>
                    <path d="M100.713447,132.32314 L39.6896409,132.32314 C24.4666101,132.32314 11.6026894,121.049191 9.63614312,105.974874 L0.259953691,34.1766393 C-2.10909477,16.064261 12.0163722,0 30.3078612,0 L110.090258,0 C128.387337,0 142.507835,16.064261 140.143755,34.1766393 L130.767566,105.975494 C128.795429,121.049191 115.936478,132.32314 100.713447,132.32314" id="Shape" fill="#23A24D"></path>
                    <path d="M85.6500506,238.182024 L53.8474074,238.182024 L53.8474074,222.282133 C53.8474074,216.449155 58.5861255,211.717148 64.4273766,211.717148 L75.0707026,211.717148 C80.9119537,211.717148 85.6506718,216.449155 85.6506718,222.282133 L85.6506718,238.182024 L85.6500506,238.182024 Z" id="Shape" fill="#AEB7AE"></path>
                </g>
            </g>
        </g>
    </g>
</svg>